<?xml version="1.0" encoding="utf-8"?><svg xmlns="http://www.w3.org/2000/svg" xmlns:xlink="http://www.w3.org/1999/xlink"><symbol fill="none" viewBox="0 0 98 28" id="banner-brn-arr" xmlns="http://www.w3.org/2000/svg"><path d="M.318 26.206a.5.5 0 001 .037l-1-.037zm54.156-4.06l-.271.42.271-.42zM95.787.665a.5.5 0 00-.674-.213l-3.994 2.073a.5.5 0 10.46.887l3.55-1.842 1.844 3.55a.5.5 0 10.887-.46L95.787.665zM.817 26.224l.5.019v-.004l.001-.018.004-.074a19.343 19.343 0 01.152-1.41c.137-.949.39-2.268.853-3.747.93-2.964 2.692-6.53 6.02-9.064 6.602-5.028 19.743-6.221 45.856 10.64l.542-.84C28.585 4.833 14.897 5.68 7.74 11.13c-3.552 2.705-5.403 6.487-6.367 9.561a25.252 25.252 0 00-.889 3.902 20.335 20.335 0 00-.16 1.494 7.488 7.488 0 00-.006.116v.002l.5.02zm53.386-3.659c7.175 4.633 13.407 5.638 18.723 4.47 5.3-1.165 9.61-4.474 12.988-8.32 3.38-3.849 5.854-8.266 7.482-11.711a60.056 60.056 0 001.821-4.266 43.12 43.12 0 00.593-1.66l.007-.022.002-.006v-.002l-.476-.152-.476-.15-.002.005-.007.02a14.234 14.234 0 01-.135.402c-.097.28-.243.692-.44 1.21a59.138 59.138 0 01-1.791 4.194c-1.606 3.398-4.034 7.725-7.329 11.477-3.296 3.754-7.432 6.9-12.452 8.004-5.004 1.1-10.967.186-17.966-4.333l-.542.84z" fill="#000"/></symbol><symbol fill="none" viewBox="0 0 282 101" id="banner-btn-bg" xmlns="http://www.w3.org/2000/svg"><mask id="ba" style="mask-type:alpha" maskUnits="userSpaceOnUse" x="0" y="0" width="283" height="101"><path d="M108.573 1.104c115.511 0 247.662-15.411 123.245 68.917-19.75 13.387-75.34 30.075-105.075 30.075s-33.79-30.075-63.525-30.075c-104.163 0-70.157-68.917 45.355-68.917z" fill="#D9D9D9"/></mask><g mask="url(#ba)" fill="#FFF00D" fill-opacity=".35"><path d="M16.901-140.245h11.768v313.572H16.901zm187.81 0h11.768v313.572h-11.768zm-160.98 0h11.768v313.572H43.731zm187.811 0h11.768v313.572h-11.768zm-160.981 0h11.768v313.572H70.561zm187.811 0h11.768v313.572h-11.768zm-160.98 0h11.768v313.572H97.392zm26.829 0h11.768v313.572h-11.768zm26.83 0h11.768v313.572h-11.768zm26.831 0h11.768v313.572h-11.768z"/></g></symbol><symbol fill="none" viewBox="0 0 50 78" id="banner-ring" xmlns="http://www.w3.org/2000/svg"><path fill-rule="evenodd" clip-rule="evenodd" d="M20 9.5C8.678 9.5-.5 18.678-.5 30S8.678 50.5 20 50.5 40.5 41.322 40.5 30 31.322 9.5 20 9.5zM-9.5 30C-9.5 13.708 3.708.5 20 .5S49.5 13.708 49.5 30 36.292 59.5 20 59.5-9.5 46.292-9.5 30z" fill="#FFF00D"/><path fill="#D5127F" d="M4 39.855L6.35 39l10.26 28.19-2.35.856zm24 9L30.35 48l10.26 28.19-2.35.856z"/><path fill="#02A1D8" d="M16 44.855L18.35 44l10.26 28.19-2.35.856z"/></symbol><symbol fill="none" viewBox="0 0 221 229" id="banner-tl" xmlns="http://www.w3.org/2000/svg"><mask id="da" style="mask-type:alpha" maskUnits="userSpaceOnUse" x="-50" y="-25" width="235" height="215"><ellipse cx="119.727" cy="103.962" rx="119.727" ry="103.962" transform="scale(-1 1) rotate(25.668 72.854 -318.623)" fill="#D9D9D9"/></mask><g mask="url(#da)" fill="#FFF00D" fill-opacity=".35"><path d="M126.634-96.098l-7.675 3.689 117.609 244.72 7.674-3.69zM4.139-37.229l-7.675 3.689 117.608 244.72 7.675-3.689zm104.996-50.459L101.46-84l117.61 244.72 7.674-3.688zM-13.36-28.819l-7.675 3.689L96.573 219.59l7.675-3.69zM91.635-79.278l-7.674 3.688 117.608 244.72 7.675-3.688zM-30.86-20.409l-7.675 3.688L79.074 228l7.674-3.688zM74.136-70.868l-7.675 3.688L184.07 177.54l7.674-3.689zM-48.36-11.999l-7.674 3.688L61.574 236.41l7.675-3.688zM56.637-62.458l-7.675 3.688L166.57 185.95l7.675-3.689zM-65.858-3.59L-73.533.1 44.075 244.818l7.675-3.689zM39.137-54.048l-7.675 3.688 117.609 244.72 7.674-3.689zM-83.358 4.82l-7.675 3.69L26.576 253.228l7.674-3.689zM21.638-45.638l-7.675 3.688 117.609 244.72 7.674-3.689zM-100.857 13.23l-7.675 3.689L9.077 261.639l7.674-3.689z"/><path d="M-100.857 13.23l-7.675 3.689L9.077 261.639l7.674-3.689z"/></g></symbol><symbol fill="none" viewBox="0 0 111 124" id="banner-tr" xmlns="http://www.w3.org/2000/svg"><path d="M224.866-10.955c11.723 33.715-17.272 90.166-55.561 87.747C85.499 71.497 8.647 152.249 39.308 53.568c18.304-58.91 45.134-84.12 87.543-98.867 42.409-14.747 86.292.63 98.015 34.344z" fill="#FFF00D"/><circle cx="50.336" cy="63.336" r="2.336" fill="#D5127F"/><circle cx="59.681" cy="63.336" r="2.336" fill="#D5127F"/><circle cx="69.026" cy="63.336" r="2.336" fill="#D5127F"/><circle cx="78.371" cy="63.336" r="2.336" fill="#D5127F"/><circle cx="87.716" cy="63.336" r="2.336" fill="#D5127F"/><circle cx="50.336" cy="74.239" r="2.336" fill="#D5127F"/><circle cx="59.681" cy="74.239" r="2.336" fill="#D5127F"/><circle cx="69.026" cy="74.239" r="2.336" fill="#D5127F"/><circle cx="78.371" cy="74.239" r="2.336" fill="#D5127F"/><circle cx="87.716" cy="74.239" r="2.336" fill="#D5127F"/></symbol></svg>