<?xml version="1.0" encoding="utf-8"?><svg xmlns="http://www.w3.org/2000/svg" xmlns:xlink="http://www.w3.org/1999/xlink"><symbol fill="none" viewBox="0 0 98 28" id="banner-brn-arr" xmlns="http://www.w3.org/2000/svg"><path d="M.318 26.206a.5.5 0 001 .037l-1-.037zm54.156-4.06l-.271.42.271-.42zM95.787.665a.5.5 0 00-.674-.213l-3.994 2.073a.5.5 0 10.46.887l3.55-1.842 1.844 3.55a.5.5 0 10.887-.46L95.787.665zM.817 26.224l.5.019v-.004l.001-.018.004-.074a19.343 19.343 0 01.152-1.41c.137-.949.39-2.268.853-3.747.93-2.964 2.692-6.53 6.02-9.064 6.602-5.028 19.743-6.221 45.856 10.64l.542-.84C28.585 4.833 14.897 5.68 7.74 11.13c-3.552 2.705-5.403 6.487-6.367 9.561a25.252 25.252 0 00-.889 3.902 20.335 20.335 0 00-.16 1.494 7.488 7.488 0 00-.006.116v.002l.5.02zm53.386-3.659c7.175 4.633 13.407 5.638 18.723 4.47 5.3-1.165 9.61-4.474 12.988-8.32 3.38-3.849 5.854-8.266 7.482-11.711a60.056 60.056 0 001.821-4.266 43.12 43.12 0 00.593-1.66l.007-.022.002-.006v-.002l-.476-.152-.476-.15-.002.005-.007.02a14.234 14.234 0 01-.135.402c-.097.28-.243.692-.44 1.21a59.138 59.138 0 01-1.791 4.194c-1.606 3.398-4.034 7.725-7.329 11.477-3.296 3.754-7.432 6.9-12.452 8.004-5.004 1.1-10.967.186-17.966-4.333l-.542.84z" fill="#000"/></symbol><symbol fill="none" viewBox="0 0 98 28" id="banner-btn-arr" xmlns="http://www.w3.org/2000/svg"><path fill="#000" d="M.318 26.206a.5.5 0 001 .037l-1-.037zm54.156-4.06l-.271.42.271-.42zM95.787.665a.5.5 0 00-.674-.213l-3.994 2.073a.5.5 0 10.46.887l3.55-1.842 1.844 3.55a.5.5 0 10.887-.46L95.787.665zM.817 26.224l.5.019v-.004l.001-.018.004-.074a19.343 19.343 0 01.152-1.41c.137-.949.39-2.268.853-3.747.93-2.964 2.692-6.53 6.02-9.064 6.602-5.028 19.743-6.221 45.856 10.64l.542-.84C28.585 4.833 14.897 5.68 7.74 11.13c-3.552 2.705-5.403 6.487-6.367 9.561a25.252 25.252 0 00-.889 3.902 20.335 20.335 0 00-.16 1.494 7.488 7.488 0 00-.006.116v.002l.5.02zm53.386-3.659c7.175 4.633 13.407 5.638 18.723 4.47 5.3-1.165 9.61-4.474 12.988-8.32 3.38-3.849 5.854-8.266 7.482-11.711a60.056 60.056 0 001.821-4.266 43.12 43.12 0 00.593-1.66l.007-.022.002-.006v-.002l-.476-.152-.476-.15-.002.005-.007.02a14.234 14.234 0 01-.135.402c-.097.28-.243.692-.44 1.21a59.138 59.138 0 01-1.791 4.194c-1.606 3.398-4.034 7.725-7.329 11.477-3.296 3.754-7.432 6.9-12.452 8.004-5.004 1.1-10.967.186-17.966-4.333l-.542.84z"/></symbol><symbol fill="none" viewBox="0 0 282 101" id="banner-btn-bg" xmlns="http://www.w3.org/2000/svg"><mask id="ca" style="mask-type:alpha" maskUnits="userSpaceOnUse" x="0" y="0" width="283" height="101"><path d="M108.573 1.104c115.511 0 247.662-15.411 123.245 68.917-19.75 13.387-75.34 30.075-105.075 30.075s-33.79-30.075-63.525-30.075c-104.163 0-70.157-68.917 45.355-68.917z" fill="#D9D9D9"/></mask><g mask="url(#ca)" fill="#FFF00D" fill-opacity=".35"><path d="M16.901-140.245h11.768v313.572H16.901zm187.81 0h11.768v313.572h-11.768zm-160.98 0h11.768v313.572H43.731zm187.811 0h11.768v313.572h-11.768zm-160.981 0h11.768v313.572H70.561zm187.811 0h11.768v313.572h-11.768zm-160.98 0h11.768v313.572H97.392zm26.829 0h11.768v313.572h-11.768zm26.83 0h11.768v313.572h-11.768zm26.831 0h11.768v313.572h-11.768z"/></g></symbol><symbol fill="none" viewBox="0 0 180 256" id="banner-ring" xmlns="http://www.w3.org/2000/svg"><path fill-rule="evenodd" clip-rule="evenodd" d="M89 30c-32.585 0-59 26.415-59 59s26.415 59 59 59 59-26.415 59-59-26.415-59-59-59zM0 89C0 39.847 39.847 0 89 0s89 39.847 89 89-39.847 89-89 89S0 138.153 0 89z" fill="#FFF00D"/><path fill="#D5127F" d="M36 102.394L42.578 100l34.484 94.744-6.578 2.395z"/><path fill="#02A1D8" d="M87 131.394L93.578 129l34.484 94.744-6.578 2.395z"/><path fill="#D5127F" d="M138 160.394l6.578-2.394 34.484 94.744-6.578 2.395z"/></symbol><symbol fill="none" viewBox="0 0 1073 1021" id="banner-tl" xmlns="http://www.w3.org/2000/svg"><mask id="ea" style="mask-type:alpha" maskUnits="userSpaceOnUse" x="126" y="134" width="821" height="753"><path d="M914.834 328.619c87.226 181.491-11.51 410.048-220.524 510.496-209.013 100.449-449.16 34.751-536.381-146.74-87.222-181.491 11.51-410.048 220.524-510.497 209.013-100.448 449.16-34.75 536.381 146.741z" fill="#D9D9D9"/></mask><g mask="url(#ea)" fill="#FFF00D" fill-opacity=".35"><path d="M-81.452 279.762l26.917-12.936 412.457 858.242-26.917 12.936zM348.143 73.306L375.06 60.37l412.457 858.242-26.917 12.936zM-20.081 250.268l26.917-12.936 412.457 858.242-26.917 12.936zM409.514 43.812l26.917-12.936 412.457 858.242-26.917 12.936zM41.289 220.775l26.917-12.936 412.457 858.242-26.917 12.936zM470.884 14.318L497.8 1.382l412.457 858.242-26.917 12.936zM102.66 191.281l26.917-12.936 412.457 858.242-26.917 12.936zM532.255-15.175l26.917-12.936L971.63 830.131l-26.917 12.936zM164.031 161.787l26.917-12.936 412.457 858.242-26.917 12.936zM593.626-44.669l26.917-12.936L1033 800.637l-26.916 12.936zM225.401 132.293l26.917-12.936L664.775 977.6l-26.917 12.936zM654.996-74.163l26.917-12.936 412.457 858.242-26.917 12.936zM286.772 102.8l26.917-12.936 412.457 858.242-26.917 12.936zm429.595-206.457l26.917-12.936L1155.74 741.65l-26.917 12.936z"/><path d="M716.367-103.657l26.917-12.936L1155.74 741.65l-26.917 12.936z"/></g></symbol><symbol fill="none" viewBox="0 0 627 495" id="banner-tr" xmlns="http://www.w3.org/2000/svg"><path d="M617.881 128.972c37.635 108.233-55.449 289.455-178.367 281.689-269.04-16.997-515.754 242.237-417.323-74.554 58.76-189.114 144.891-270.05 281.036-317.39 136.144-47.34 277.02 2.023 314.654 110.255z" fill="#FFF00D"/></symbol><symbol fill="none" viewBox="0 0 219 191" id="benefits-btn-bg" xmlns="http://www.w3.org/2000/svg"><mask id="ga" style="mask-type:alpha" maskUnits="userSpaceOnUse" x="24" y="43" width="180" height="117"><path d="M192.664 88.03c34.55 61.218-23.165 26.406-12.849 64.651 5.744 21.291-108.68-15.734-135.912-31.457-27.233-15.723 27.502-35.706 3.796-46.404-90.167-40.691 110.415-48.008 144.965 13.21z" fill="#D9D9D9"/></mask><g mask="url(#ga)" fill="#FFF00D" fill-opacity=".35"><path d="M105.483-162.093l11.345 6.55-174.543 302.317-11.345-6.55zM286.552-57.552l11.345 6.55-174.543 302.317-11.345-6.55zM131.35-147.158l11.345 6.55-174.543 302.317-11.345-6.55zm181.069 104.54l11.345 6.55L149.22 266.249l-11.345-6.55zm-155.202-89.606l11.345 6.55L-5.981 176.643l-11.345-6.55zm181.069 104.54l11.345 6.55-174.543 302.317-11.345-6.55zM183.084-117.29l11.345 6.55L19.886 191.577l-11.345-6.55zm25.867 14.935l11.345 6.55L45.753 206.512l-11.345-6.55zm25.867 14.934l11.345 6.55L71.62 221.446l-11.345-6.55zm25.867 14.934l11.345 6.55L97.487 236.38l-11.345-6.55z"/></g></symbol><symbol fill="none" viewBox="0 0 44 69" id="benefits-item-1" xmlns="http://www.w3.org/2000/svg"><path d="M8.556 67.688C49.353 72.853 47.53 12.373 35.422 2.614 24.631-6.086 21.15 23.214 1 23.214" stroke="#000" stroke-linecap="round"/></symbol><symbol fill="none" viewBox="0 0 117 48" id="benefits-item-2" xmlns="http://www.w3.org/2000/svg"><path d="M20.105 1.2C1.578 5.5-5.37 26.84 8.69 40.733c14.06 13.896 33.745-.57 52.107-7.774 21.505-8.437 47.896-7.422 55.25 1.654" stroke="#000" stroke-linecap="round"/></symbol><symbol fill="none" viewBox="0 0 98 28" id="benefits-item-3" xmlns="http://www.w3.org/2000/svg"><path d="M97.934 1.337a.5.5 0 00-1-.036l1 .036zM43.778 5.4l.271-.42-.271.42zM2.465 26.878a.5.5 0 00.674.213l3.994-2.073a.5.5 0 00-.46-.887l-3.551 1.842-1.843-3.55a.5.5 0 10-.887.46l2.073 3.995zm94.97-25.559l-.5-.018v.004l-.001.018a7.023 7.023 0 01-.026.37c-.022.26-.061.64-.13 1.114a24.22 24.22 0 01-.854 3.746c-.929 2.964-2.69 6.531-6.018 9.065-6.603 5.028-19.744 6.22-45.857-10.64l-.542.84c26.16 16.891 39.848 16.045 47.005 10.595 3.552-2.705 5.403-6.486 6.367-9.56.483-1.54.746-2.914.889-3.903a20.289 20.289 0 00.16-1.493l.005-.087v-.023l.001-.006v-.002c0-.001 0-.002-.5-.02zM44.048 4.98C36.874.346 30.642-.66 25.326.509c-5.3 1.165-9.61 4.474-12.989 8.32-3.378 3.848-5.853 8.265-7.48 11.71a60.1 60.1 0 00-1.822 4.267 43.614 43.614 0 00-.593 1.659l-.007.023-.002.006v.002l.476.151.476.151.002-.005a3.074 3.074 0 01.033-.102c.024-.072.06-.18.109-.32.097-.28.243-.692.44-1.21a59.098 59.098 0 011.791-4.194c1.606-3.397 4.034-7.725 7.33-11.477 3.296-3.754 7.432-6.901 12.452-8.004 5.004-1.1 10.967-.186 17.966 4.333l.542-.84z" fill="#000"/></symbol><symbol fill="none" viewBox="0 0 446 779" id="benefits-tr" xmlns="http://www.w3.org/2000/svg"><path d="M413.816 152.122c102.027 435.062-68.821 110.482-177.846 606.222C213.328 861.295 44.308 536.564 18.044 424.57-8.22 312.576-12.86 83.753 54.844 140.194c285.394 237.919 256.944-423.134 358.972 11.928z" fill="#FFF00D"/></symbol><symbol fill="none" viewBox="0 0 209 190" id="contacts-btn-bg" xmlns="http://www.w3.org/2000/svg"><mask id="la" style="mask-type:alpha" maskUnits="userSpaceOnUse" x="9" y="33" width="163" height="128"><path d="M114.663 33.664c-31.415 13.019-11.489 19.072-82.017 36.384-34.082 8.366-31.511 64.554 17.815 55.213 49.327-9.341 27.381-30.04 91.81 24.618 65.152 55.273 3.808-129.233-27.608-116.215z" fill="#D9D9D9"/></mask><g mask="url(#la)" fill="#FFF00D" fill-opacity=".35"><path d="M89.635-57.202l-9.368-2.132L23.45 190.289l9.367 2.133zm128.15 29.169l-9.367-2.133L151.6 219.458l9.367 2.132zM68.276-62.063l-9.367-2.133L2.091 185.428l9.368 2.132zm128.151 29.168l-9.367-2.132-56.818 249.623 9.367 2.132zM46.918-66.925l-9.367-2.132-56.818 249.623 9.367 2.132zm128.15 29.169l-9.367-2.132-56.818 249.623 9.367 2.132zm-21.358-4.862l-9.367-2.132-56.818 249.624 9.367 2.132zm-21.358-4.862l-9.367-2.131-56.818 249.623 9.367 2.132zm-21.359-4.86l-9.367-2.133L44.808 195.15l9.367 2.133z"/></g></symbol><symbol fill="none" viewBox="0 0 246 22" id="contacts-worm" xmlns="http://www.w3.org/2000/svg"><path d="M30.73 0C39.3 0 43.7 4.87 47.58 9.16c3.8 4.21 7.08 7.84 13.88 7.84 6.8 0 10.07-3.64 13.88-7.84C79.22 4.86 83.62 0 92.18 0s12.97 4.87 16.84 9.16c3.8 4.21 7.08 7.84 13.88 7.84 6.8 0 10.07-3.64 13.88-7.84 3.88-4.3 8.28-9.16 16.84-9.16s12.96 4.87 16.84 9.16c3.8 4.21 7.08 7.84 13.88 7.84 6.8 0 10.07-3.64 13.87-7.84 3.88-4.3 8.27-9.16 16.84-9.16s12.96 4.87 16.84 9.16c3.8 4.21 7.08 7.85 13.87 7.85v4c-8.57 0-12.96-4.87-16.84-9.16-3.8-4.21-7.08-7.84-13.87-7.84-6.79 0-10.07 3.64-13.87 7.84-3.89 4.29-8.28 9.16-16.85 9.16-8.57 0-12.96-4.87-16.84-9.16-3.8-4.21-7.08-7.84-13.87-7.84-6.79 0-10.07 3.64-13.88 7.84-3.88 4.3-8.28 9.16-16.84 9.16s-12.97-4.87-16.84-9.16c-3.8-4.21-7.08-7.84-13.88-7.84-6.8 0-10.07 3.64-13.88 7.84-3.88 4.3-8.28 9.16-16.84 9.16s-12.97-4.87-16.85-9.16c-3.8-4.21-7.08-7.84-13.88-7.84-6.8 0-10.08 3.64-13.88 7.84-3.88 4.29-8.28 9.16-16.85 9.16v-4c6.79 0 10.08-3.64 13.88-7.84C17.76 4.87 22.16.01 30.73.01V0z" fill="#3F3F3F"/></symbol><symbol fill="none" viewBox="0 0 135 50" id="dots" xmlns="http://www.w3.org/2000/svg"><circle cx="7.5" cy="7.5" r="7.5" fill="#D5127F"/><circle cx="37.5" cy="7.5" r="7.5" fill="#D5127F"/><circle cx="67.5" cy="7.5" r="7.5" fill="#D5127F"/><circle cx="97.5" cy="7.5" r="7.5" fill="#D5127F"/><circle cx="127.5" cy="7.5" r="7.5" fill="#D5127F"/><circle cx="7.5" cy="42.5" r="7.5" fill="#D5127F"/><circle cx="37.5" cy="42.5" r="7.5" fill="#D5127F"/><circle cx="67.5" cy="42.5" r="7.5" fill="#D5127F"/><circle cx="97.5" cy="42.5" r="7.5" fill="#D5127F"/><circle cx="127.5" cy="42.5" r="7.5" fill="#D5127F"/></symbol><symbol fill="none" viewBox="0 0 779 446" id="faq-lb" xmlns="http://www.w3.org/2000/svg"><path d="M626.111 413.816C191.049 515.843 515.629 344.995 19.889 235.97-83.062 213.329 241.669 44.308 353.663 18.044 465.657-8.22 694.48-12.86 638.039 54.844 400.12 340.237 1061.17 311.787 626.111 413.815z" fill="#FFF00D"/></symbol><symbol fill="none" viewBox="0 0 105 227" id="faq-r" xmlns="http://www.w3.org/2000/svg"><mask id="pa" style="mask-type:alpha" maskUnits="userSpaceOnUse" x="52" y="12" width="147" height="160"><path d="M52.176 142.31c3.92-36.566 16.281-17.741 12.718-96.197-1.721-37.912 57.358-52.393 62.72 1.633 5.363 54.027-22.811 37.576 53.56 87.739 77.229 50.727-132.917 43.391-128.998 6.825z" fill="#D9D9D9"/></mask><g mask="url(#pa)" fill="#FFF00D" fill-opacity=".35"><path d="M31.199 288.803l-5.072-9.069 241.644-135.127 5.07 9.068zm-80.935-144.729l-5.07-9.069L186.836-.122l5.07 9.068zm69.373 124.053l-5.072-9.069L256.21 123.931l5.07 9.068zm-80.934-144.729l-5.07-9.068L175.274-20.798l5.071 9.069zM8.075 247.452l-5.072-9.069 241.644-135.127 5.07 9.068zm-80.934-144.729l-5.07-9.068L163.712-41.473l5.071 9.069zm69.372 124.053l-5.072-9.069L233.085 82.58l5.07 9.068zM-15.05 206.1l-5.07-9.068L221.522 61.905l5.07 9.068zm-11.561-20.675l-5.072-9.069L209.961 41.23l5.07 9.068zm-11.562-20.675l-5.072-9.069L198.4 20.554l5.07 9.068z"/></g></symbol><symbol fill="none" viewBox="0 0 68 40" id="logo" xmlns="http://www.w3.org/2000/svg"><g clip-path="url(#qa)" fill="#D51480"><path d="M3.654 18.232H0v-3.694h6.204c1.348 0 2.538-.479 3.567-1.436 1.029-.958 1.586-2.152 1.671-3.58v-.04c0-.038.004-.07.01-.088v-.176a5.89 5.89 0 00-.756-2.93c-.504-.897-1.273-1.59-2.302-2.079a.317.317 0 01-.098-.05.91.91 0 00-.107-.038 6.149 6.149 0 00-.987-.317c-.02 0-.038 0-.059-.004-.02-.004-.038-.004-.059-.004a4.31 4.31 0 00-.878-.078H0V.02h6.712c.137 0 .25.006.342.02 2.247.212 4.156 1.174 5.726 2.89 1.57 1.716 2.355 3.74 2.355 6.079v.236c0 2.337-.785 4.363-2.355 6.08-1.57 1.716-3.48 2.673-5.726 2.879a.87.87 0 01-.226.029H3.652l.002-.003zm27.326.01h-4.066l-.274-.553-3.664-7.9-.46-1.007-1.379 2.953L19.4 15.44l-1.32 2.805h-4.044L22.516 0l8.463 18.242zm4.772-.021h-3.685V.03h3.685v18.19zm15.226 0H38.237V.03h3.674v14.489h9.07v3.703h-.003zM64.893.029l-6.81 11.603v6.587h-3.675v-6.568L47.578.029h4.27l4.358 7.427L60.594.03h4.299zM12.4 27.969c0 .732-.114 1.426-.342 2.084a6.35 6.35 0 01-.968 1.739 5.906 5.906 0 01-1.417 1.313 5.2 5.2 0 01-1.72.789l-.279.07c-.108.027-.23.053-.366.078-.28.072-.514.109-.703.109H3.693v5.837H0v-9.53h6.38a4.49 4.49 0 01.255-.04.98.98 0 00.16-.028c.05-.012.094-.023.133-.029.612-.164 1.072-.493 1.379-.988.298-.5.449-.973.449-1.412 0-.224-.037-.46-.108-.711a2.509 2.509 0 00-.341-.712 3.183 3.183 0 00-.578-.591 2.33 2.33 0 00-.801-.366c-.027-.006-.136-.037-.332-.088a1.362 1.362 0 01-.215-.021H0v-3.693h6.556c.118 0 .254.01.41.029.222.039.391.072.509.098.077.027.159.05.24.07l.24.06a4.532 4.532 0 00.321.078c.45.177.887.392 1.31.641.41.25.823.612 1.24 1.087.313.329.577.715.791 1.155.215.41.39.814.527 1.215.085.277.142.567.175.87.052.316.077.612.077.887h.004zM26.898 40h-4.006l-3.107-6.973h-1.934v6.953h-3.674V29.334h6.45c.012 0 .092-.017.234-.05.059-.02.114-.037.167-.049a.767.767 0 00.146-.05c.456-.19.769-.454.938-.788.168-.362.254-.695.254-.997 0-.302-.086-.633-.255-1.007-.189-.344-.502-.609-.937-.8a4.187 4.187 0 00-.313-.099c-.13-.02-.21-.028-.234-.028h-6.45v-3.704h6.548c.052 0 .174.013.372.04.11.012.276.045.498.098a10.213 10.213 0 01.82.236c.306.138.666.327 1.083.564.34.203.692.499 1.056.887a5.9 5.9 0 01.919 1.324c.221.487.372.941.45 1.362.076.344.117.722.117 1.137 0 .822-.19 1.652-.567 2.489-.39.855-1.066 1.609-2.023 2.26l3.448 7.843V40zm6.159-.02h-3.684V21.787h3.684V39.98zm17.341 0h-3.664L38.79 28.345V39.98h-3.693V21.787h3.664l7.945 11.624V21.787h3.692V39.98zM68 25.48h-5.844v14.497h-3.674V25.5h-5.883v-3.714h15.4v3.693l.001.002z"/></g><defs><clipPath id="qa"><path fill="#fff" d="M0 0h68v40H0z"/></clipPath></defs></symbol><symbol fill="none" viewBox="0 0 220 220" id="ring" xmlns="http://www.w3.org/2000/svg"><path fill-rule="evenodd" clip-rule="evenodd" d="M110 30c-44.183 0-80 35.817-80 80s35.817 80 80 80 80-35.817 80-80-35.817-80-80-80zM0 110C0 49.249 49.249 0 110 0s110 49.249 110 110-49.249 110-110 110S0 170.751 0 110z" fill="#FFF00D"/></symbol><symbol fill="none" viewBox="0 0 95 60" id="services-b" xmlns="http://www.w3.org/2000/svg"><path fill-rule="evenodd" clip-rule="evenodd" d="M44 9.5c-11.322 0-20.5 9.178-20.5 20.5S32.678 50.5 44 50.5 64.5 41.322 64.5 30 55.322 9.5 44 9.5zM14.5 30C14.5 13.708 27.708.5 44 .5S73.5 13.708 73.5 30 60.292 59.5 44 59.5 14.5 46.292 14.5 30z" fill="#FFF00D"/><circle cx="39.717" cy="45.336" r="2.336" transform="rotate(180 39.717 45.336)" fill="#02A1D8"/><circle cx="30.371" cy="45.336" r="2.336" transform="rotate(180 30.371 45.336)" fill="#02A1D8"/><circle cx="21.026" cy="45.336" r="2.336" transform="rotate(180 21.026 45.336)" fill="#02A1D8"/><circle cx="11.681" cy="45.336" r="2.336" transform="rotate(180 11.681 45.336)" fill="#02A1D8"/><circle cx="2.337" cy="45.336" r="2.336" transform="rotate(180 2.337 45.336)" fill="#02A1D8"/><circle cx="91.716" cy="25.336" r="2.336" transform="rotate(180 91.716 25.336)" fill="#D5127F"/><circle cx="82.371" cy="25.336" r="2.336" transform="rotate(180 82.371 25.336)" fill="#D5127F"/><circle cx="73.026" cy="25.336" r="2.336" transform="rotate(180 73.026 25.336)" fill="#D5127F"/><circle cx="63.681" cy="25.336" r="2.336" transform="rotate(180 63.681 25.336)" fill="#D5127F"/><circle cx="54.337" cy="25.336" r="2.336" transform="rotate(180 54.337 25.336)" fill="#D5127F"/></symbol><symbol fill="none" viewBox="0 0 442 556" id="services-l" xmlns="http://www.w3.org/2000/svg"><path d="M437.382 133.764c37.635 108.232-185.857 157.5-107.5 336.5 108.104 246.952-415.93-89.208-317.5-406 58.76-189.114 2.083 104.058 138.227 56.717 136.145-47.34 249.139-95.45 286.773 12.783z" fill="#FFF00D"/></symbol><symbol fill="none" viewBox="0 0 17 246" id="services-worm" xmlns="http://www.w3.org/2000/svg"><path d="M.757 215.03c0-8.57 3.653-12.97 6.87-16.85 3.158-3.8 5.88-7.08 5.88-13.88 0-6.8-2.73-10.07-5.88-13.88-3.225-3.88-6.87-8.28-6.87-16.84s3.653-12.97 6.87-16.84c3.158-3.8 5.88-7.08 5.88-13.88 0-6.8-2.73-10.07-5.88-13.88-3.225-3.88-6.87-8.28-6.87-16.84S4.41 79.18 7.627 75.3c3.158-3.8 5.88-7.08 5.88-13.88 0-6.8-2.73-10.07-5.88-13.87-3.225-3.88-6.87-8.27-6.87-16.84s3.653-12.96 6.87-16.84c3.158-3.8 5.888-7.08 5.888-13.87h3c0 8.57-3.653 12.96-6.87 16.84-3.158 3.8-5.88 7.08-5.88 13.87 0 6.79 2.73 10.07 5.88 13.87 3.217 3.89 6.87 8.28 6.87 16.85 0 8.57-3.653 12.96-6.87 16.84-3.158 3.8-5.88 7.08-5.88 13.87 0 6.79 2.73 10.07 5.88 13.88 3.225 3.88 6.87 8.28 6.87 16.84s-3.653 12.97-6.87 16.84c-3.158 3.8-5.88 7.08-5.88 13.88 0 6.8 2.73 10.07 5.88 13.88 3.225 3.88 6.87 8.28 6.87 16.84s-3.653 12.97-6.87 16.85c-3.158 3.8-5.88 7.08-5.88 13.88 0 6.8 2.73 10.08 5.88 13.88 3.217 3.88 6.87 8.28 6.87 16.85h-3c0-6.79-2.73-10.08-5.88-13.88C4.41 228 .765 223.6.765 215.03H.757z" fill="#3F3F3F"/></symbol><symbol fill="none" viewBox="0 0 57 57" id="whatsup" xmlns="http://www.w3.org/2000/svg"><rect x="1" y="1" width="55" height="55" rx="14" fill="#fff"/><g filter="url(#va)"><path fill-rule="evenodd" clip-rule="evenodd" d="M28.494 9C17.744 9 9 17.747 9 28.5c0 4.264 1.375 8.22 3.713 11.43l-2.43 7.244 7.496-2.395A19.345 19.345 0 0028.506 48C39.256 48 48 39.253 48 28.5S39.256 9 28.506 9h-.012zm-5.444 9.905c-.378-.905-.664-.94-1.237-.963a11.031 11.031 0 00-.653-.023c-.746 0-1.525.218-1.995.7-.573.584-1.994 1.948-1.994 4.745 0 2.798 2.04 5.503 2.315 5.882.287.378 3.977 6.201 9.707 8.575 4.481 1.857 5.811 1.685 6.83 1.467 1.49-.321 3.359-1.422 3.829-2.752.47-1.33.47-2.465.332-2.705-.137-.241-.516-.378-1.089-.665-.573-.287-3.358-1.662-3.885-1.846-.516-.195-1.008-.126-1.398.425-.55.768-1.089 1.547-1.524 2.017-.344.367-.906.413-1.376.218-.63-.263-2.395-.883-4.572-2.82-1.685-1.502-2.831-3.37-3.163-3.932-.333-.573-.035-.906.229-1.215.286-.356.561-.608.848-.94.286-.333.447-.505.63-.895.195-.378.057-.768-.08-1.054-.138-.287-1.284-3.084-1.754-4.219z" fill="#67C15E"/></g><rect x="1" y="1" width="55" height="55" rx="14" stroke="#000" stroke-width="2"/><defs><filter id="va" x="8" y="9" width="40" height="41" filterUnits="userSpaceOnUse" color-interpolation-filters="sRGB"><feFlood flood-opacity="0" result="BackgroundImageFix"/><feBlend in="SourceGraphic" in2="BackgroundImageFix" result="shape"/><feColorMatrix in="SourceAlpha" values="0 0 0 0 0 0 0 0 0 0 0 0 0 0 0 0 0 0 127 0" result="hardAlpha"/><feOffset dx="-1" dy="2"/><feGaussianBlur stdDeviation="1"/><feComposite in2="hardAlpha" operator="arithmetic" k2="-1" k3="1"/><feColorMatrix values="0 0 0 0 0 0 0 0 0 0 0 0 0 0 0 0 0 0 0.25 0"/><feBlend in2="shape" result="effect1_innerShadow_47_493"/></filter></defs></symbol></svg>