<svg xmlns="http://www.w3.org/2000/svg" width="1073" height="1021" fill="none"><mask id="a" width="821" height="753" x="126" y="134" maskUnits="userSpaceOnUse" style="mask-type:alpha"><path fill="#D9D9D9" d="M914.834 328.619c87.226 181.491-11.51 410.048-220.524 510.496-209.013 100.449-449.16 34.751-536.381-146.74-87.222-181.491 11.51-410.048 220.524-510.497 209.013-100.448 449.16-34.75 536.381 146.741Z"/></mask><g fill="#FFF00D" fill-opacity=".35" mask="url(#a)"><path d="m-81.452 279.762 26.917-12.936 412.457 858.242-26.917 12.936zM348.143 73.306 375.06 60.37l412.457 858.242-26.917 12.936zM-20.081 250.268l26.917-12.936 412.457 858.242-26.917 12.936zM409.514 43.812l26.917-12.936 412.457 858.242-26.917 12.936zM41.289 220.775l26.917-12.936 412.457 858.242-26.917 12.936zM470.884 14.318 497.8 1.382l412.457 858.242-26.917 12.936zM102.66 191.281l26.917-12.936 412.457 858.242-26.917 12.936zM532.255-15.175l26.917-12.936L971.63 830.131l-26.917 12.936zM164.031 161.787l26.917-12.936 412.457 858.242-26.917 12.936zM593.626-44.669l26.917-12.936L1033 800.637l-26.916 12.936zM225.401 132.293l26.917-12.936L664.775 977.6l-26.917 12.936zM654.996-74.163l26.917-12.936 412.457 858.242-26.917 12.936zM286.772 102.8l26.917-12.936 412.457 858.242-26.917 12.936zm429.595-206.457 26.917-12.936L1155.74 741.65l-26.917 12.936z"/><path d="m716.367-103.657 26.917-12.936L1155.74 741.65l-26.917 12.936z"/></g></svg>