<svg xmlns="http://www.w3.org/2000/svg" width="98" height="28" fill="none"><path fill="#000" d="M97.934 1.337a.5.5 0 0 0-1-.036l1 .036ZM43.778 5.4l.271-.42-.271.42ZM2.465 26.878a.5.5 0 0 0 .674.213l3.994-2.073a.5.5 0 0 0-.46-.887l-3.551 1.842-1.843-3.55a.5.5 0 1 0-.887.46l2.073 3.995Zm94.97-25.559-.5-.018v.004l-.001.018a7.023 7.023 0 0 1-.026.37c-.022.26-.061.64-.13 1.114a24.22 24.22 0 0 1-.854 3.746c-.929 2.964-2.69 6.531-6.018 9.065-6.603 5.028-19.744 6.22-45.857-10.64l-.542.84c26.16 16.891 39.848 16.045 47.005 10.595 3.552-2.705 5.403-6.486 6.367-9.56.483-1.54.746-2.914.889-3.903a20.289 20.289 0 0 0 .16-1.493l.005-.087v-.023l.001-.006v-.002c0-.001 0-.002-.5-.02ZM44.048 4.98C36.874.346 30.642-.66 25.326.509c-5.3 1.165-9.61 4.474-12.989 8.32-3.378 3.848-5.853 8.265-7.48 11.71a60.1 60.1 0 0 0-1.822 4.267 43.614 43.614 0 0 0-.593 1.659l-.007.023-.002.006v.002l.476.151.476.151.002-.005a3.074 3.074 0 0 1 .033-.102c.024-.072.06-.18.109-.32.097-.28.243-.692.44-1.21a59.098 59.098 0 0 1 1.791-4.194c1.606-3.397 4.034-7.725 7.33-11.477 3.296-3.754 7.432-6.901 12.452-8.004 5.004-1.1 10.967-.186 17.966 4.333l.542-.84Z"/></svg>