<svg xmlns="http://www.w3.org/2000/svg" width="209" height="190" fill="none"><mask id="a" width="163" height="128" x="9" y="33" maskUnits="userSpaceOnUse" style="mask-type:alpha"><path fill="#D9D9D9" d="M114.663 33.664c-31.415 13.019-11.489 19.072-82.017 36.384-34.082 8.366-31.511 64.554 17.815 55.213 49.327-9.341 27.381-30.04 91.81 24.618 65.152 55.273 3.808-129.233-27.608-116.215Z"/></mask><g fill="#FFF00D" fill-opacity=".35" mask="url(#a)"><path d="m89.635-57.202-9.368-2.132L23.45 190.289l9.367 2.133zm128.15 29.169-9.367-2.133L151.6 219.458l9.367 2.132zM68.276-62.063l-9.367-2.133L2.091 185.428l9.368 2.132zm128.151 29.168-9.367-2.132-56.818 249.623 9.367 2.132zM46.918-66.925l-9.367-2.132-56.818 249.623 9.367 2.132zm128.15 29.169-9.367-2.132-56.818 249.623 9.367 2.132zm-21.358-4.862-9.367-2.132-56.818 249.624 9.367 2.132zm-21.358-4.862-9.367-2.131-56.818 249.623 9.367 2.132zm-21.359-4.86-9.367-2.133L44.808 195.15l9.367 2.133z"/></g></svg>