<svg xmlns="http://www.w3.org/2000/svg" width="68" height="40" fill="none"><g fill="#D51480" clip-path="url(#a)"><path d="M3.654 18.232H0v-3.694h6.204c1.348 0 2.538-.479 3.567-1.436 1.029-.958 1.586-2.152 1.671-3.58v-.04c0-.038.004-.07.01-.088v-.176a5.89 5.89 0 0 0-.756-2.93c-.504-.897-1.273-1.59-2.302-2.079a.317.317 0 0 1-.098-.05.91.91 0 0 0-.107-.038 6.149 6.149 0 0 0-.987-.317c-.02 0-.038 0-.059-.004-.02-.004-.038-.004-.059-.004a4.31 4.31 0 0 0-.878-.078H0V.02h6.712c.137 0 .25.006.342.02 2.247.212 4.156 1.174 5.726 2.89 1.57 1.716 2.355 3.74 2.355 6.079v.236c0 2.337-.785 4.363-2.355 6.08-1.57 1.716-3.48 2.673-5.726 2.879a.87.87 0 0 1-.226.029H3.652l.002-.003Zm27.326.01h-4.066l-.274-.553-3.664-7.9-.46-1.007-1.379 2.953L19.4 15.44l-1.32 2.805h-4.044L22.516 0l8.463 18.242Zm4.772-.021h-3.685V.03h3.685v18.19Zm15.226 0H38.237V.03h3.674v14.489h9.07v3.703h-.003ZM64.893.029l-6.81 11.603v6.587h-3.675v-6.568L47.578.029h4.27l4.358 7.427L60.594.03h4.299ZM12.4 27.969c0 .732-.114 1.426-.342 2.084a6.35 6.35 0 0 1-.968 1.739 5.906 5.906 0 0 1-1.417 1.313 5.2 5.2 0 0 1-1.72.789l-.279.07c-.108.027-.23.053-.366.078-.28.072-.514.109-.703.109H3.693v5.837H0v-9.53h6.38a4.49 4.49 0 0 1 .255-.04.98.98 0 0 0 .16-.028c.05-.012.094-.023.133-.029.612-.164 1.072-.493 1.379-.988.298-.5.449-.973.449-1.412 0-.224-.037-.46-.108-.711a2.509 2.509 0 0 0-.341-.712 3.183 3.183 0 0 0-.578-.591 2.33 2.33 0 0 0-.801-.366c-.027-.006-.136-.037-.332-.088a1.362 1.362 0 0 1-.215-.021H0v-3.693h6.556c.118 0 .254.01.41.029.222.039.391.072.509.098.077.027.159.05.24.07l.24.06a4.532 4.532 0 0 0 .321.078c.45.177.887.392 1.31.641.41.25.823.612 1.24 1.087.313.329.577.715.791 1.155.215.41.39.814.527 1.215.085.277.142.567.175.87.052.316.077.612.077.887h.004ZM26.898 40h-4.006l-3.107-6.973h-1.934v6.953h-3.674V29.334h6.45c.012 0 .092-.017.234-.05.059-.02.114-.037.167-.049a.767.767 0 0 0 .146-.05c.456-.19.769-.454.938-.788.168-.362.254-.695.254-.997 0-.302-.086-.633-.255-1.007-.189-.344-.502-.609-.937-.8a4.187 4.187 0 0 0-.313-.099c-.13-.02-.21-.028-.234-.028h-6.45v-3.704h6.548c.052 0 .174.013.372.04.11.012.276.045.498.098a10.213 10.213 0 0 1 .82.236c.306.138.666.327 1.083.564.34.203.692.499 1.056.887a5.9 5.9 0 0 1 .919 1.324c.221.487.372.941.45 1.362.076.344.117.722.117 1.137 0 .822-.19 1.652-.567 2.489-.39.855-1.066 1.609-2.023 2.26l3.448 7.843V40Zm6.159-.02h-3.684V21.787h3.684V39.98Zm17.341 0h-3.664L38.79 28.345V39.98h-3.693V21.787h3.664l7.945 11.624V21.787h3.692V39.98ZM68 25.48h-5.844v14.497h-3.674V25.5h-5.883v-3.714h15.4v3.693l.001.002Z"/></g><defs><clipPath id="a"><path fill="#fff" d="M0 0h68v40H0z"/></clipPath></defs></svg>