<svg xmlns="http://www.w3.org/2000/svg" width="17" height="246" fill="none"><path fill="#3F3F3F" d="M.757 215.03c0-8.57 3.653-12.97 6.87-16.85 3.158-3.8 5.88-7.08 5.88-13.88 0-6.8-2.73-10.07-5.88-13.88-3.225-3.88-6.87-8.28-6.87-16.84s3.653-12.97 6.87-16.84c3.158-3.8 5.88-7.08 5.88-13.88 0-6.8-2.73-10.07-5.88-13.88-3.225-3.88-6.87-8.28-6.87-16.84S4.41 79.18 7.627 75.3c3.158-3.8 5.88-7.08 5.88-13.88 0-6.8-2.73-10.07-5.88-13.87-3.225-3.88-6.87-8.27-6.87-16.84s3.653-12.96 6.87-16.84c3.158-3.8 5.888-7.08 5.888-13.87h3c0 8.57-3.653 12.96-6.87 16.84-3.158 3.8-5.88 7.08-5.88 13.87 0 6.79 2.73 10.07 5.88 13.87 3.217 3.89 6.87 8.28 6.87 16.85 0 8.57-3.653 12.96-6.87 16.84-3.158 3.8-5.88 7.08-5.88 13.87 0 6.79 2.73 10.07 5.88 13.88 3.225 3.88 6.87 8.28 6.87 16.84s-3.653 12.97-6.87 16.84c-3.158 3.8-5.88 7.08-5.88 13.88 0 6.8 2.73 10.07 5.88 13.88 3.225 3.88 6.87 8.28 6.87 16.84s-3.653 12.97-6.87 16.85c-3.158 3.8-5.88 7.08-5.88 13.88 0 6.8 2.73 10.08 5.88 13.88 3.217 3.88 6.87 8.28 6.87 16.85h-3c0-6.79-2.73-10.08-5.88-13.88C4.41 228 .765 223.6.765 215.03H.757Z"/></svg>