<svg xmlns="http://www.w3.org/2000/svg" width="221" height="229" fill="none"><mask id="a" width="235" height="215" x="-50" y="-25" maskUnits="userSpaceOnUse" style="mask-type:alpha"><ellipse cx="119.727" cy="103.962" fill="#D9D9D9" rx="119.727" ry="103.962" transform="scale(-1 1) rotate(25.668 72.854 -318.623)"/></mask><g fill="#FFF00D" fill-opacity=".35" mask="url(#a)"><path d="m126.634-96.098-7.675 3.689 117.609 244.72 7.674-3.69zM4.139-37.229l-7.675 3.689 117.608 244.72 7.675-3.689zm104.996-50.459L101.46-84l117.61 244.72 7.674-3.688zM-13.36-28.819l-7.675 3.689L96.573 219.59l7.675-3.69zM91.635-79.278l-7.674 3.688 117.608 244.72 7.675-3.688zM-30.86-20.409l-7.675 3.688L79.074 228l7.674-3.688zM74.136-70.868l-7.675 3.688L184.07 177.54l7.674-3.689zM-48.36-11.999l-7.674 3.688L61.574 236.41l7.675-3.688zM56.637-62.458l-7.675 3.688L166.57 185.95l7.675-3.689zM-65.858-3.59-73.533.1 44.075 244.818l7.675-3.689zM39.137-54.048l-7.675 3.688 117.609 244.72 7.674-3.689zM-83.358 4.82l-7.675 3.69L26.576 253.228l7.674-3.689zM21.638-45.638l-7.675 3.688 117.609 244.72 7.674-3.689zM-100.857 13.23l-7.675 3.689L9.077 261.639l7.674-3.689z"/><path d="m-100.857 13.23-7.675 3.689L9.077 261.639l7.674-3.689z"/></g></svg>