<svg xmlns="http://www.w3.org/2000/svg" width="50" height="78" fill="none"><path fill="#FFF00D" fill-rule="evenodd" d="M20 9.5C8.678 9.5-.5 18.678-.5 30S8.678 50.5 20 50.5 40.5 41.322 40.5 30 31.322 9.5 20 9.5ZM-9.5 30C-9.5 13.708 3.708.5 20 .5S49.5 13.708 49.5 30 36.292 59.5 20 59.5-9.5 46.292-9.5 30Z" clip-rule="evenodd"/><path fill="#D5127F" d="M4 39.855 6.35 39l10.26 28.19-2.35.856zm24 9L30.35 48l10.26 28.19-2.35.856z"/><path fill="#02A1D8" d="M16 44.855 18.35 44l10.26 28.19-2.35.856z"/></svg>