<svg xmlns="http://www.w3.org/2000/svg" width="180" height="256" fill="none"><path fill="#FFF00D" fill-rule="evenodd" d="M89 30c-32.585 0-59 26.415-59 59s26.415 59 59 59 59-26.415 59-59-26.415-59-59-59ZM0 89C0 39.847 39.847 0 89 0s89 39.847 89 89-39.847 89-89 89S0 138.153 0 89Z" clip-rule="evenodd"/><path fill="#D5127F" d="M36 102.394 42.578 100l34.484 94.744-6.578 2.395z"/><path fill="#02A1D8" d="M87 131.394 93.578 129l34.484 94.744-6.578 2.395z"/><path fill="#D5127F" d="m138 160.394 6.578-2.394 34.484 94.744-6.578 2.395z"/></svg>