<svg width="124" height="265" viewBox="0 0 124 265" fill="none" xmlns="http://www.w3.org/2000/svg">
<path d="M171.596 73.3201C195.952 177.178 155.167 99.6944 129.14 218.037C123.735 242.614 83.3869 165.094 77.1171 138.359C70.8474 111.624 69.7395 56.9989 85.9018 70.4726C154.031 127.269 147.24 -30.5379 171.596 73.3201Z" fill="#FFF00D"/>
<circle cx="101.716" cy="114.239" r="2.33625" transform="rotate(180 101.716 114.239)" fill="#D5127F"/>
<circle cx="92.3713" cy="114.239" r="2.33625" transform="rotate(180 92.3713 114.239)" fill="#D5127F"/>
<circle cx="83.0265" cy="114.239" r="2.33625" transform="rotate(180 83.0265 114.239)" fill="#D5127F"/>
<circle cx="73.6813" cy="114.239" r="2.33625" transform="rotate(180 73.6813 114.239)" fill="#D5127F"/>
<circle cx="64.3366" cy="114.239" r="2.33625" transform="rotate(180 64.3366 114.239)" fill="#D5127F"/>
<circle cx="101.716" cy="103.336" r="2.33625" transform="rotate(180 101.716 103.336)" fill="#D5127F"/>
<circle cx="92.3713" cy="103.336" r="2.33625" transform="rotate(180 92.3713 103.336)" fill="#D5127F"/>
<circle cx="83.0265" cy="103.336" r="2.33625" transform="rotate(180 83.0265 103.336)" fill="#D5127F"/>
<circle cx="73.6813" cy="103.336" r="2.33625" transform="rotate(180 73.6813 103.336)" fill="#D5127F"/>
<circle cx="64.3366" cy="103.336" r="2.33625" transform="rotate(180 64.3366 103.336)" fill="#D5127F"/>
</svg>
