<svg xmlns="http://www.w3.org/2000/svg" width="105" height="227" fill="none"><mask id="a" width="147" height="160" x="52" y="12" maskUnits="userSpaceOnUse" style="mask-type:alpha"><path fill="#D9D9D9" d="M52.176 142.31c3.92-36.566 16.281-17.741 12.718-96.197-1.721-37.912 57.358-52.393 62.72 1.633 5.363 54.027-22.811 37.576 53.56 87.739 77.229 50.727-132.917 43.391-128.998 6.825Z"/></mask><g fill="#FFF00D" fill-opacity=".35" mask="url(#a)"><path d="m31.199 288.803-5.072-9.069 241.644-135.127 5.07 9.068zm-80.935-144.729-5.07-9.069L186.836-.122l5.07 9.068zm69.373 124.053-5.072-9.069L256.21 123.931l5.07 9.068zm-80.934-144.729-5.07-9.068L175.274-20.798l5.071 9.069zM8.075 247.452l-5.072-9.069 241.644-135.127 5.07 9.068zm-80.934-144.729-5.07-9.068L163.712-41.473l5.071 9.069zm69.372 124.053-5.072-9.069L233.085 82.58l5.07 9.068zM-15.05 206.1l-5.07-9.068L221.522 61.905l5.07 9.068zm-11.561-20.675-5.072-9.069L209.961 41.23l5.07 9.068zm-11.562-20.675-5.072-9.069L198.4 20.554l5.07 9.068z"/></g></svg>