<svg width="95" height="60" viewBox="0 0 95 60" fill="none" xmlns="http://www.w3.org/2000/svg">
<path fill-rule="evenodd" clip-rule="evenodd" d="M44 9.5C32.6782 9.5 23.5 18.6782 23.5 30C23.5 41.3218 32.6782 50.5 44 50.5C55.3218 50.5 64.5 41.3218 64.5 30C64.5 18.6782 55.3218 9.5 44 9.5ZM14.5 30C14.5 13.7076 27.7076 0.5 44 0.5C60.2924 0.5 73.5 13.7076 73.5 30C73.5 46.2924 60.2924 59.5 44 59.5C27.7076 59.5 14.5 46.2924 14.5 30Z" fill="#FFF00D"/>
<circle cx="39.7165" cy="45.3362" r="2.33625" transform="rotate(180 39.7165 45.3362)" fill="#02A1D8"/>
<circle cx="30.3713" cy="45.3362" r="2.33625" transform="rotate(180 30.3713 45.3362)" fill="#02A1D8"/>
<circle cx="21.0265" cy="45.3362" r="2.33625" transform="rotate(180 21.0265 45.3362)" fill="#02A1D8"/>
<circle cx="11.6813" cy="45.3362" r="2.33625" transform="rotate(180 11.6813 45.3362)" fill="#02A1D8"/>
<circle cx="2.3366" cy="45.3362" r="2.33625" transform="rotate(180 2.3366 45.3362)" fill="#02A1D8"/>
<circle cx="91.7165" cy="25.3362" r="2.33625" transform="rotate(180 91.7165 25.3362)" fill="#D5127F"/>
<circle cx="82.3713" cy="25.3362" r="2.33625" transform="rotate(180 82.3713 25.3362)" fill="#D5127F"/>
<circle cx="73.0265" cy="25.3362" r="2.33625" transform="rotate(180 73.0265 25.3362)" fill="#D5127F"/>
<circle cx="63.6813" cy="25.3362" r="2.33625" transform="rotate(180 63.6813 25.3362)" fill="#D5127F"/>
<circle cx="54.3366" cy="25.3362" r="2.33625" transform="rotate(180 54.3366 25.3362)" fill="#D5127F"/>
</svg>
