<svg width="105" height="274" viewBox="0 0 105 274" fill="none" xmlns="http://www.w3.org/2000/svg">
<path d="M60.416 91.4152C74.5815 132.153 -9.53955 150.697 19.9537 218.072C60.6432 311.023 -136.6 184.494 -99.5512 65.2559C-77.4345 -5.92516 -98.7674 104.423 -47.5235 86.604C3.72037 68.7854 46.2506 50.6772 60.416 91.4152Z" fill="#FFF00D"/>
<circle cx="22.3363" cy="92.7162" r="2.33625" transform="rotate(-90 22.3363 92.7162)" fill="#D5127F"/>
<circle cx="22.3363" cy="83.3713" r="2.33625" transform="rotate(-90 22.3363 83.3713)" fill="#D5127F"/>
<circle cx="22.3363" cy="74.0262" r="2.33625" transform="rotate(-90 22.3363 74.0262)" fill="#D5127F"/>
<circle cx="22.3363" cy="64.6812" r="2.33625" transform="rotate(-90 22.3363 64.6812)" fill="#D5127F"/>
<circle cx="22.3363" cy="55.3362" r="2.33625" transform="rotate(-90 22.3363 55.3362)" fill="#D5127F"/>
<circle cx="33.2386" cy="92.7162" r="2.33625" transform="rotate(-90 33.2386 92.7162)" fill="#D5127F"/>
<circle cx="33.2386" cy="83.3713" r="2.33625" transform="rotate(-90 33.2386 83.3713)" fill="#D5127F"/>
<circle cx="33.2386" cy="74.0262" r="2.33625" transform="rotate(-90 33.2386 74.0262)" fill="#D5127F"/>
<circle cx="33.2386" cy="64.6812" r="2.33625" transform="rotate(-90 33.2386 64.6812)" fill="#D5127F"/>
<circle cx="33.2386" cy="55.3362" r="2.33625" transform="rotate(-90 33.2386 55.3362)" fill="#D5127F"/>
</svg>
