<svg xmlns="http://www.w3.org/2000/svg" width="57" height="57" fill="none"><rect width="55" height="55" x="1" y="1" fill="#29B6F6" rx="14"/><path fill="#fff" d="m45.927 14.646-5.463 27.892s-.235 1.275-1.816 1.275c-.84 0-1.273-.4-1.273-.4l-11.832-9.819-5.79-2.918-7.43-1.976S11 28.318 11 27.224c0-.912 1.36-1.346 1.36-1.346l31.087-12.35s.949-.342 1.642-.34c.425 0 .911.182.911.729 0 .364-.073.729-.073.729Z"/><path fill="#B0BEC5" d="m29.958 37.257-4.996 4.92s-.218.168-.508.176a.72.72 0 0 1-.32-.063l1.407-8.7 4.417 3.667Z"/><path fill="#CFD8DC" d="M40.017 19.307a.73.73 0 0 0-1.023-.136L19.75 30.688s3.071 8.592 3.54 10.08c.469 1.489.845 1.523.845 1.523l1.406-8.698 14.338-13.266a.727.727 0 0 0 .138-1.02Z"/><rect width="55" height="55" x="1" y="1" stroke="#000" stroke-width="2" rx="14"/></svg>