<svg xmlns="http://www.w3.org/2000/svg" width="57" height="57" fill="none"><rect width="55" height="55" x="1" y="1" fill="#fff" rx="14"/><g filter="url(#a)"><path fill="#29B6F6" d="m47.601 12.961-5.987 30.572s-.258 1.397-1.99 1.397c-.921 0-1.396-.438-1.396-.438L25.258 33.73l-6.346-3.199-8.144-2.166s-1.45-.418-1.45-1.617c0-1 1.492-1.476 1.492-1.476l34.072-13.535s1.041-.376 1.8-.374c.467 0 1 .2 1 .799 0 .4-.08.799-.08.799Z"/><path fill="#0D719E" d="m30.099 39.433-5.476 6.341s-.239.216-.557.226a.69.69 0 0 1-.35-.081l1.541-11.211 4.842 4.725Z"/><path fill="#279BD0" d="M41.122 16.298c-.27-.413-.768-.489-1.12-.175L18.909 30.966s3.366 11.074 3.88 12.99c.514 1.92.926 1.965.926 1.965l1.541-11.211 15.716-17.096c.352-.314.417-.902.15-1.316Z"/></g><rect width="55" height="55" x="1" y="1" stroke="#000" stroke-width="2" rx="14"/><defs><filter id="a" width="39.363" height="36.638" x="8.318" y="11.363" color-interpolation-filters="sRGB" filterUnits="userSpaceOnUse"><feFlood flood-opacity="0" result="BackgroundImageFix"/><feBlend in="SourceGraphic" in2="BackgroundImageFix" result="shape"/><feColorMatrix in="SourceAlpha" result="hardAlpha" values="0 0 0 0 0 0 0 0 0 0 0 0 0 0 0 0 0 0 127 0"/><feOffset dx="-1" dy="2"/><feGaussianBlur stdDeviation="1"/><feComposite in2="hardAlpha" k2="-1" k3="1" operator="arithmetic"/><feColorMatrix values="0 0 0 0 0 0 0 0 0 0 0 0 0 0 0 0 0 0 0.25 0"/><feBlend in2="shape" result="effect1_innerShadow_259_20"/></filter></defs></svg>