<svg xmlns="http://www.w3.org/2000/svg" width="57" height="57" fill="none"><rect width="55" height="55" x="1" y="1" fill="#67C15E" rx="14"/><g filter="url(#a)"><path fill="#fff" fill-rule="evenodd" d="M28.494 9C17.744 9 9 17.747 9 28.5c0 4.264 1.375 8.22 3.713 11.43l-2.43 7.244 7.496-2.395A19.345 19.345 0 0 0 28.506 48C39.256 48 48 39.253 48 28.5S39.256 9 28.506 9h-.012Zm-5.444 9.905c-.378-.905-.664-.94-1.237-.963a11.031 11.031 0 0 0-.653-.023c-.746 0-1.525.218-1.995.7-.573.584-1.994 1.948-1.994 4.745 0 2.798 2.04 5.503 2.315 5.882.287.378 3.977 6.201 9.707 8.575 4.481 1.857 5.811 1.685 6.83 1.467 1.49-.321 3.359-1.422 3.829-2.752.47-1.33.47-2.465.332-2.705-.137-.241-.516-.378-1.089-.665-.573-.287-3.358-1.662-3.885-1.846-.516-.195-1.008-.126-1.398.425-.55.768-1.089 1.547-1.524 2.017-.344.367-.906.413-1.376.218-.63-.263-2.395-.883-4.572-2.82-1.685-1.502-2.831-3.37-3.163-3.932-.333-.573-.035-.906.229-1.215.286-.356.561-.608.848-.94.286-.333.447-.505.63-.895.195-.378.057-.768-.08-1.054-.138-.287-1.284-3.084-1.754-4.219Z" clip-rule="evenodd"/></g><rect width="55" height="55" x="1" y="1" stroke="#000" stroke-width="2" rx="14"/><defs><filter id="a" width="40" height="41" x="8" y="9" color-interpolation-filters="sRGB" filterUnits="userSpaceOnUse"><feFlood flood-opacity="0" result="BackgroundImageFix"/><feBlend in="SourceGraphic" in2="BackgroundImageFix" result="shape"/><feColorMatrix in="SourceAlpha" result="hardAlpha" values="0 0 0 0 0 0 0 0 0 0 0 0 0 0 0 0 0 0 127 0"/><feOffset dx="-1" dy="2"/><feGaussianBlur stdDeviation="1"/><feComposite in2="hardAlpha" k2="-1" k3="1" operator="arithmetic"/><feColorMatrix values="0 0 0 0 0 0 0 0 0 0 0 0 0 0 0 0 0 0 0.25 0"/><feBlend in2="shape" result="effect1_innerShadow_48_797"/></filter></defs></svg>