<svg width="221" height="229" viewBox="0 0 221 229" fill="none" xmlns="http://www.w3.org/2000/svg">
<mask id="mask0_36_30" style="mask-type:alpha" maskUnits="userSpaceOnUse" x="-50" y="-25" width="235" height="215">
<ellipse cx="119.727" cy="103.962" rx="119.727" ry="103.962" transform="matrix(-0.901318 0.433159 0.433159 0.901318 130.825 -63)" fill="#D9D9D9"/>
</mask>
<g mask="url(#mask0_36_30)">
<rect width="8.51546" height="271.513" transform="matrix(-0.901318 0.433159 0.433159 0.901318 126.634 -96.0977)" fill="#FFF00D" fill-opacity="0.35"/>
<rect width="8.51546" height="271.513" transform="matrix(-0.901318 0.433159 0.433159 0.901318 4.13867 -37.2286)" fill="#FFF00D" fill-opacity="0.35"/>
<rect width="8.51546" height="271.513" transform="matrix(-0.901318 0.433159 0.433159 0.901318 109.135 -87.6879)" fill="#FFF00D" fill-opacity="0.35"/>
<rect width="8.51546" height="271.513" transform="matrix(-0.901318 0.433159 0.433159 0.901318 -13.3604 -28.8187)" fill="#FFF00D" fill-opacity="0.35"/>
<rect width="8.51546" height="271.513" transform="matrix(-0.901318 0.433159 0.433159 0.901318 91.6353 -79.278)" fill="#FFF00D" fill-opacity="0.35"/>
<rect width="8.51546" height="271.513" transform="matrix(-0.901318 0.433159 0.433159 0.901318 -30.8599 -20.4089)" fill="#FFF00D" fill-opacity="0.35"/>
<rect width="8.51546" height="271.513" transform="matrix(-0.901318 0.433159 0.433159 0.901318 74.1362 -70.8681)" fill="#FFF00D" fill-opacity="0.35"/>
<rect width="8.51546" height="271.513" transform="matrix(-0.901318 0.433159 0.433159 0.901318 -48.3594 -11.999)" fill="#FFF00D" fill-opacity="0.35"/>
<rect width="8.51546" height="271.513" transform="matrix(-0.901318 0.433159 0.433159 0.901318 56.6367 -62.4583)" fill="#FFF00D" fill-opacity="0.35"/>
<rect width="8.51546" height="271.513" transform="matrix(-0.901318 0.433159 0.433159 0.901318 -65.8584 -3.58911)" fill="#FFF00D" fill-opacity="0.35"/>
<rect width="8.51546" height="271.513" transform="matrix(-0.901318 0.433159 0.433159 0.901318 39.1372 -54.0483)" fill="#FFF00D" fill-opacity="0.35"/>
<rect width="8.51546" height="271.513" transform="matrix(-0.901318 0.433159 0.433159 0.901318 -83.3579 4.8208)" fill="#FFF00D" fill-opacity="0.35"/>
<rect width="8.51546" height="271.513" transform="matrix(-0.901318 0.433159 0.433159 0.901318 21.6382 -45.6384)" fill="#FFF00D" fill-opacity="0.35"/>
<rect width="8.51546" height="271.513" transform="matrix(-0.901318 0.433159 0.433159 0.901318 -100.857 13.2307)" fill="#FFF00D" fill-opacity="0.35"/>
<rect width="8.51546" height="271.513" transform="matrix(-0.901318 0.433159 0.433159 0.901318 -100.857 13.2307)" fill="#FFF00D" fill-opacity="0.35"/>
</g>
</svg>
