<svg width="180" height="256" viewBox="0 0 180 256" fill="none" xmlns="http://www.w3.org/2000/svg">
<path fill-rule="evenodd" clip-rule="evenodd" d="M89 30C56.4152 30 30 56.4152 30 89C30 121.585 56.4152 148 89 148C121.585 148 148 121.585 148 89C148 56.4152 121.585 30 89 30ZM0 89C0 39.8467 39.8467 0 89 0C138.153 0 178 39.8467 178 89C178 138.153 138.153 178 89 178C39.8467 178 0 138.153 0 89Z" fill="#FFF00D"/>
<rect x="36" y="102.394" width="7" height="100.825" transform="rotate(-20 36 102.394)" fill="#D5127F"/>
<rect x="87" y="131.394" width="7" height="100.825" transform="rotate(-20 87 131.394)" fill="#02A1D8"/>
<rect x="138" y="160.394" width="7" height="100.825" transform="rotate(-20 138 160.394)" fill="#D5127F"/>
</svg>
