<svg xmlns="http://www.w3.org/2000/svg" width="98" height="28" fill="none"><path fill="#000" d="M.318 26.206a.5.5 0 0 0 1 .037l-1-.037Zm54.156-4.06-.271.42.271-.42ZM95.787.665a.5.5 0 0 0-.674-.213l-3.994 2.073a.5.5 0 1 0 .46.887l3.55-1.842 1.844 3.55a.5.5 0 1 0 .887-.46L95.787.665ZM.817 26.224l.5.019v-.004l.001-.018.004-.074a19.343 19.343 0 0 1 .152-1.41c.137-.949.39-2.268.853-3.747.93-2.964 2.692-6.53 6.02-9.064 6.602-5.028 19.743-6.221 45.856 10.64l.542-.84C28.585 4.833 14.897 5.68 7.74 11.13c-3.552 2.705-5.403 6.487-6.367 9.561a25.252 25.252 0 0 0-.889 3.902 20.335 20.335 0 0 0-.16 1.494 7.488 7.488 0 0 0-.006.116v.002l.5.02Zm53.386-3.659c7.175 4.633 13.407 5.638 18.723 4.47 5.3-1.165 9.61-4.474 12.988-8.32 3.38-3.849 5.854-8.266 7.482-11.711a60.056 60.056 0 0 0 1.821-4.266 43.12 43.12 0 0 0 .593-1.66l.007-.022.002-.006v-.002l-.476-.152-.476-.15-.002.005-.007.02a14.234 14.234 0 0 1-.135.402c-.097.28-.243.692-.44 1.21a59.138 59.138 0 0 1-1.791 4.194c-1.606 3.398-4.034 7.725-7.329 11.477-3.296 3.754-7.432 6.9-12.452 8.004-5.004 1.1-10.967.186-17.966-4.333l-.542.84Z"/></svg>