<svg width="98" height="28" viewBox="0 0 98 28" fill="none" xmlns="http://www.w3.org/2000/svg">
<path d="M0.317794 26.2063C0.307706 26.4822 0.523236 26.7141 0.799194 26.7242C1.07515 26.7343 1.30704 26.5187 1.31713 26.2428L0.317794 26.2063ZM54.4741 22.1452L54.2028 22.5652L54.4741 22.1452ZM95.7871 0.666044C95.6599 0.420949 95.3581 0.325389 95.113 0.452604L91.119 2.52569C90.8739 2.6529 90.7783 2.95472 90.9055 3.19981C91.0328 3.44491 91.3346 3.54047 91.5797 3.41325L95.1299 1.57051L96.9727 5.12076C97.0999 5.36586 97.4017 5.46142 97.6468 5.3342C97.8919 5.20699 97.9874 4.90517 97.8602 4.66008L95.7871 0.666044ZM0.81746 26.2245C1.31713 26.2428 1.31712 26.243 1.31712 26.243C1.31712 26.2429 1.31713 26.2428 1.31714 26.2425C1.31717 26.2418 1.31722 26.2405 1.31729 26.2387C1.31745 26.2351 1.3177 26.2292 1.31809 26.2211C1.31886 26.205 1.32015 26.1801 1.32213 26.1468C1.32611 26.0803 1.33288 25.9804 1.34395 25.8503C1.3661 25.5902 1.40542 25.2101 1.47384 24.7364C1.61079 23.7884 1.86382 22.4694 2.32743 20.9904C3.25658 18.0263 5.01859 14.4597 8.34605 11.926C14.9491 6.89816 28.0895 5.70491 54.2028 22.5652L54.7453 21.7251C28.5849 4.83443 14.8971 5.68086 7.74024 11.1304C4.18775 13.8355 2.33692 17.617 1.37321 20.6913C0.890392 22.2316 0.626995 23.6044 0.484118 24.5934C0.412634 25.0883 0.371192 25.4879 0.347556 25.7655C0.335736 25.9043 0.328363 26.0127 0.323911 26.0872C0.321686 26.1245 0.32019 26.1534 0.319234 26.1733C0.318756 26.1833 0.318413 26.1911 0.31818 26.1966C0.318064 26.1993 0.317976 26.2015 0.317913 26.2031C0.317881 26.204 0.317851 26.2047 0.317836 26.2051C0.317812 26.2058 0.317794 26.2063 0.81746 26.2245ZM54.2028 22.5652C61.3778 27.1978 67.6103 28.203 72.926 27.0347C78.2269 25.8696 82.5367 22.5605 85.9144 18.7141C89.2934 14.8663 91.7679 10.4493 93.3959 7.00388C94.2108 5.27928 94.8157 3.79362 95.2172 2.73787C95.4181 2.20989 95.5682 1.78917 95.6683 1.49952C95.7184 1.35469 95.756 1.2426 95.7813 1.16625C95.7939 1.12807 95.8035 1.09882 95.8099 1.07888C95.8131 1.0689 95.8156 1.06125 95.8173 1.05598C95.8181 1.05334 95.8188 1.05129 95.8192 1.04985C95.8195 1.04912 95.8197 1.04849 95.8198 1.04813C95.8199 1.04764 95.82 1.04731 95.3434 0.896386C94.8667 0.745461 94.8667 0.74543 94.8667 0.745548C94.8666 0.745787 94.8665 0.746054 94.8663 0.746533C94.866 0.747489 94.8655 0.749041 94.8649 0.751185C94.8635 0.755472 94.8613 0.762122 94.8584 0.771088C94.8526 0.789022 94.8438 0.816223 94.8319 0.85232C94.808 0.924518 94.7718 1.03229 94.7233 1.17267C94.6262 1.45345 94.4795 1.86458 94.2826 2.38234C93.8886 3.41804 93.2937 4.87932 92.4917 6.57667C90.8859 9.97517 88.4581 14.302 85.163 18.0542C81.8668 21.8078 77.731 24.9547 72.7113 26.058C67.7065 27.158 61.7437 26.2437 54.7453 21.7251L54.2028 22.5652Z" fill="black"/>
</svg>
