<svg width="282" height="101" viewBox="0 0 282 101" fill="none" xmlns="http://www.w3.org/2000/svg">
<mask id="mask0_36_76" style="mask-type:alpha" maskUnits="userSpaceOnUse" x="0" y="0" width="283" height="101">
<path d="M108.573 1.10422C224.084 1.10422 356.235 -14.3073 231.818 70.0214C212.068 83.4079 156.478 100.096 126.743 100.096C97.0084 100.096 92.9529 70.0213 63.2178 70.0213C-40.9446 70.0213 -6.93855 1.10422 108.573 1.10422Z" fill="#D9D9D9"/>
</mask>
<g mask="url(#mask0_36_76)">
<rect x="16.9014" y="-140.245" width="11.7675" height="313.572" fill="#FFF00D" fill-opacity="0.35"/>
<rect x="204.711" y="-140.245" width="11.7675" height="313.572" fill="#FFF00D" fill-opacity="0.35"/>
<rect x="43.7314" y="-140.245" width="11.7675" height="313.572" fill="#FFF00D" fill-opacity="0.35"/>
<rect x="231.542" y="-140.245" width="11.7675" height="313.572" fill="#FFF00D" fill-opacity="0.35"/>
<rect x="70.5615" y="-140.245" width="11.7675" height="313.572" fill="#FFF00D" fill-opacity="0.35"/>
<rect x="258.372" y="-140.245" width="11.7675" height="313.572" fill="#FFF00D" fill-opacity="0.35"/>
<rect x="97.3916" y="-140.245" width="11.7675" height="313.572" fill="#FFF00D" fill-opacity="0.35"/>
<rect x="124.221" y="-140.245" width="11.7675" height="313.572" fill="#FFF00D" fill-opacity="0.35"/>
<rect x="151.051" y="-140.245" width="11.7675" height="313.572" fill="#FFF00D" fill-opacity="0.35"/>
<rect x="177.882" y="-140.245" width="11.7675" height="313.572" fill="#FFF00D" fill-opacity="0.35"/>
</g>
</svg>
