<svg width="219" height="191" viewBox="0 0 219 191" fill="none" xmlns="http://www.w3.org/2000/svg">
<mask id="mask0_46_140" style="mask-type:alpha" maskUnits="userSpaceOnUse" x="24" y="43" width="180" height="117">
<path d="M192.664 88.0301C227.214 149.248 169.499 114.436 179.815 152.681C185.559 173.972 71.135 136.947 43.9027 121.224C16.6704 105.501 71.405 85.5181 47.6986 74.8198C-42.4682 34.1288 158.114 26.8118 192.664 88.0301Z" fill="#D9D9D9"/>
</mask>
<g mask="url(#mask0_46_140)">
<rect x="105.483" y="-162.093" width="13.1003" height="349.086" transform="rotate(30 105.483 -162.093)" fill="#FFF00D" fill-opacity="0.35"/>
<rect x="286.552" y="-57.5524" width="13.1003" height="349.086" transform="rotate(30 286.552 -57.5524)" fill="#FFF00D" fill-opacity="0.35"/>
<rect x="131.35" y="-147.158" width="13.1003" height="349.086" transform="rotate(30 131.35 -147.158)" fill="#FFF00D" fill-opacity="0.35"/>
<rect x="312.419" y="-42.618" width="13.1003" height="349.086" transform="rotate(30 312.419 -42.618)" fill="#FFF00D" fill-opacity="0.35"/>
<rect x="157.217" y="-132.224" width="13.1003" height="349.086" transform="rotate(30 157.217 -132.224)" fill="#FFF00D" fill-opacity="0.35"/>
<rect x="338.286" y="-27.6838" width="13.1003" height="349.086" transform="rotate(30 338.286 -27.6838)" fill="#FFF00D" fill-opacity="0.35"/>
<rect x="183.084" y="-117.29" width="13.1003" height="349.086" transform="rotate(30 183.084 -117.29)" fill="#FFF00D" fill-opacity="0.35"/>
<rect x="208.951" y="-102.355" width="13.1003" height="349.086" transform="rotate(30 208.951 -102.355)" fill="#FFF00D" fill-opacity="0.35"/>
<rect x="234.818" y="-87.4209" width="13.1003" height="349.086" transform="rotate(30 234.818 -87.4209)" fill="#FFF00D" fill-opacity="0.35"/>
<rect x="260.685" y="-72.4867" width="13.1003" height="349.086" transform="rotate(30 260.685 -72.4867)" fill="#FFF00D" fill-opacity="0.35"/>
</g>
</svg>
