<svg width="246" height="22" viewBox="0 0 246 22" fill="none" xmlns="http://www.w3.org/2000/svg">
<path d="M30.73 0.000234879C39.3 0.000235628 43.7 4.87024 47.58 9.16024C51.38 13.3702 54.66 17.0002 61.46 17.0002C68.26 17.0002 71.53 13.3602 75.34 9.16024C79.22 4.86024 83.62 0.000239503 92.18 0.000240251C100.74 0.000240999 105.15 4.87024 109.02 9.16024C112.82 13.3702 116.1 17.0002 122.9 17.0002C129.7 17.0002 132.97 13.3602 136.78 9.16024C140.66 4.86024 145.06 0.000244874 153.62 0.000245622C162.18 0.000246371 166.58 4.87025 170.46 9.16025C174.26 13.3702 177.54 17.0002 184.34 17.0002C191.14 17.0002 194.41 13.3602 198.21 9.16025C202.09 4.86025 206.48 0.000250243 215.05 0.000250993C223.62 0.000251742 228.01 4.87025 231.89 9.16025C235.69 13.3703 238.97 17.0103 245.76 17.0103L245.76 21.0103C237.19 21.0103 232.8 16.1403 228.92 11.8503C225.12 7.64025 221.84 4.01025 215.05 4.01025C208.26 4.01025 204.98 7.65025 201.18 11.8503C197.29 16.1402 192.9 21.0102 184.33 21.0102C175.76 21.0102 171.37 16.1402 167.49 11.8502C163.69 7.64025 160.41 4.01025 153.62 4.01025C146.83 4.01025 143.55 7.65025 139.74 11.8502C135.86 16.1502 131.46 21.0102 122.9 21.0102C114.34 21.0102 109.93 16.1402 106.06 11.8502C102.26 7.64024 98.98 4.01024 92.18 4.01024C85.38 4.01024 82.11 7.65024 78.3 11.8502C74.42 16.1502 70.02 21.0102 61.46 21.0102C52.9 21.0102 48.49 16.1402 44.61 11.8502C40.81 7.64024 37.53 4.01024 30.73 4.01024C23.93 4.01023 20.65 7.65023 16.85 11.8502C12.97 16.1402 8.57001 21.0102 1.52588e-05 21.0102L1.56085e-05 17.0102C6.79001 17.0102 10.08 13.3702 13.88 9.17023C17.76 4.87023 22.16 0.0102344 30.73 0.0102351L30.73 0.000234879Z" fill="#3F3F3F"/>
</svg>
