<svg width="105" height="227" viewBox="0 0 105 227" fill="none" xmlns="http://www.w3.org/2000/svg">
<mask id="mask0_46_212" style="mask-type:alpha" maskUnits="userSpaceOnUse" x="52" y="12" width="147" height="160">
<path d="M52.1764 142.31C56.0956 105.744 68.4573 124.569 64.8944 46.1134C63.1726 8.2006 122.252 -6.2803 127.614 47.7465C132.977 101.773 104.803 85.3221 181.174 135.485C258.403 186.212 48.2572 178.876 52.1764 142.31Z" fill="#D9D9D9"/>
</mask>
<g mask="url(#mask0_46_212)">
<rect x="31.1987" y="288.803" width="10.3898" height="276.859" transform="rotate(-119.214 31.1987 288.803)" fill="#FFF00D" fill-opacity="0.35"/>
<rect x="-49.7354" y="144.074" width="10.3898" height="276.859" transform="rotate(-119.214 -49.7354 144.074)" fill="#FFF00D" fill-opacity="0.35"/>
<rect x="19.6367" y="268.127" width="10.3898" height="276.859" transform="rotate(-119.214 19.6367 268.127)" fill="#FFF00D" fill-opacity="0.35"/>
<rect x="-61.2969" y="123.398" width="10.3898" height="276.859" transform="rotate(-119.214 -61.2969 123.398)" fill="#FFF00D" fill-opacity="0.35"/>
<rect x="8.07471" y="247.452" width="10.3898" height="276.859" transform="rotate(-119.214 8.07471 247.452)" fill="#FFF00D" fill-opacity="0.35"/>
<rect x="-72.8589" y="102.723" width="10.3898" height="276.859" transform="rotate(-119.214 -72.8589 102.723)" fill="#FFF00D" fill-opacity="0.35"/>
<rect x="-3.4873" y="226.776" width="10.3898" height="276.859" transform="rotate(-119.214 -3.4873 226.776)" fill="#FFF00D" fill-opacity="0.35"/>
<rect x="-15.0493" y="206.101" width="10.3898" height="276.859" transform="rotate(-119.214 -15.0493 206.101)" fill="#FFF00D" fill-opacity="0.35"/>
<rect x="-26.6113" y="185.425" width="10.3898" height="276.859" transform="rotate(-119.214 -26.6113 185.425)" fill="#FFF00D" fill-opacity="0.35"/>
<rect x="-38.1733" y="164.75" width="10.3898" height="276.859" transform="rotate(-119.214 -38.1733 164.75)" fill="#FFF00D" fill-opacity="0.35"/>
</g>
</svg>
