<svg width="133" height="261" viewBox="0 0 133 261" fill="none" xmlns="http://www.w3.org/2000/svg">
<path d="M58.7543 171.596C-45.1038 195.952 32.38 155.167 -85.963 129.14C-110.54 123.735 -33.0198 83.3869 -6.28452 77.1171C20.4507 70.8474 75.0754 69.7395 61.6018 85.9018C4.80579 154.031 162.612 147.24 58.7543 171.596Z" fill="#FFF00D"/>
<circle cx="17.8353" cy="101.716" r="2.33625" transform="rotate(-90 17.8353 101.716)" fill="#D5127F"/>
<circle cx="17.8353" cy="92.3713" r="2.33625" transform="rotate(-90 17.8353 92.3713)" fill="#D5127F"/>
<circle cx="17.8353" cy="83.0263" r="2.33625" transform="rotate(-90 17.8353 83.0263)" fill="#D5127F"/>
<circle cx="17.8353" cy="73.6811" r="2.33625" transform="rotate(-90 17.8353 73.6811)" fill="#D5127F"/>
<circle cx="17.8353" cy="64.3361" r="2.33625" transform="rotate(-90 17.8353 64.3361)" fill="#D5127F"/>
<circle cx="28.7376" cy="101.716" r="2.33625" transform="rotate(-90 28.7376 101.716)" fill="#D5127F"/>
<circle cx="28.7376" cy="92.3713" r="2.33625" transform="rotate(-90 28.7376 92.3713)" fill="#D5127F"/>
<circle cx="28.7376" cy="83.0263" r="2.33625" transform="rotate(-90 28.7376 83.0263)" fill="#D5127F"/>
<circle cx="28.7376" cy="73.6811" r="2.33625" transform="rotate(-90 28.7376 73.6811)" fill="#D5127F"/>
<circle cx="28.7376" cy="64.3361" r="2.33625" transform="rotate(-90 28.7376 64.3361)" fill="#D5127F"/>
</svg>
