<svg width="68" height="40" viewBox="0 0 68 40" fill="none" xmlns="http://www.w3.org/2000/svg">
<g clip-path="url(#clip0_101_37)">
<path d="M3.65408 18.2315H0V14.5384H6.204C7.55217 14.5384 8.74172 14.0595 9.77064 13.1018C10.7996 12.1441 11.3567 10.95 11.4421 9.52167V9.48263C11.4421 9.44358 11.4462 9.41275 11.4523 9.39425V9.21751C11.4523 8.1632 11.2001 7.18699 10.6959 6.28887C10.1916 5.39076 9.42292 4.69816 8.39401 4.20903C8.37367 4.20286 8.3574 4.1967 8.34114 4.18848C8.32487 4.18026 8.31064 4.17204 8.2964 4.1597C8.2842 4.15354 8.2476 4.13915 8.18863 4.12066C7.87548 3.98912 7.54607 3.88431 7.20241 3.80416C7.18208 3.80416 7.16378 3.80416 7.14345 3.80005C7.12311 3.79594 7.10481 3.79594 7.08448 3.79594C6.8303 3.7425 6.53748 3.71784 6.20603 3.71784H0V0.0205688H6.71236C6.8486 0.0205688 6.96247 0.0267344 7.05397 0.0411207C9.30092 0.252804 11.2103 1.21463 12.7801 2.93071C14.3499 4.64678 15.1348 6.67114 15.1348 9.00993V9.24628C15.1348 11.583 14.3499 13.6094 12.7801 15.3255C11.2103 17.0416 9.30092 17.9993 7.05397 18.2048C6.9767 18.2254 6.90147 18.2336 6.82826 18.2336H3.65204L3.65408 18.2315Z" fill="#D51480"/>
<path d="M30.9793 18.2418H26.9144L26.6399 17.6889L22.9757 9.78883L22.5161 8.78179L21.1374 11.7351L19.3989 15.4385L18.0792 18.2438H14.0347L22.5161 0L30.9793 18.2418Z" fill="#D51480"/>
<path d="M35.7517 18.2212H32.0671V0.0287476H35.7517V18.2212Z" fill="#D51480"/>
<path d="M50.9781 18.2212H38.2366V0.0287476H41.911V14.5178H50.9801V18.2212H50.9781Z" fill="#D51480"/>
<path d="M64.8928 0.0287476L58.0828 11.6323V18.2192H54.4084V11.6508L47.5781 0.0287476H51.8483L56.206 7.45617L60.5941 0.0287476H64.8928Z" fill="#D51480"/>
<path d="M12.3999 27.969C12.3999 28.7006 12.286 29.3952 12.0583 30.0529C11.8305 30.6777 11.5072 31.2572 11.0903 31.7916C10.706 32.291 10.2343 32.7308 9.67304 33.1049C9.14638 33.4727 8.57295 33.7378 7.95275 33.894C7.87548 33.9146 7.78194 33.9372 7.67417 33.9639C7.5664 33.9906 7.44439 34.0174 7.30815 34.042C7.02754 34.1139 6.7937 34.1509 6.60459 34.1509H3.69271V39.9877H0V30.4578H6.38091C6.36871 30.4578 6.45208 30.4454 6.63509 30.4187C6.69406 30.4126 6.74693 30.4023 6.79573 30.39C6.84453 30.3776 6.88927 30.3674 6.9279 30.3612C7.53997 30.1968 7.99952 29.8679 8.30657 29.3726C8.60548 28.8732 8.75596 28.4005 8.75596 27.9607C8.75596 27.7367 8.71936 27.5004 8.64819 27.2496C8.57702 27.0051 8.46314 26.7687 8.30657 26.5385C8.17033 26.3474 7.97715 26.1501 7.72907 25.9467C7.4749 25.7699 7.20852 25.6466 6.9279 25.5808C6.90147 25.5747 6.79166 25.5438 6.59645 25.4925C6.42768 25.4801 6.35447 25.4719 6.38091 25.4719H0V21.7787H6.55579C6.67372 21.7787 6.80996 21.789 6.96654 21.8075C7.18818 21.8466 7.35696 21.8795 7.4749 21.9062C7.55217 21.9329 7.6335 21.9555 7.71484 21.976C7.79618 21.9966 7.87548 22.0151 7.95479 22.0356C8.02596 22.0562 8.08899 22.0726 8.13983 22.085C8.19066 22.0973 8.23743 22.1076 8.27607 22.1137C8.72546 22.2905 9.16264 22.5063 9.5856 22.755C9.99635 23.0057 10.4091 23.3674 10.826 23.8421C11.1391 24.171 11.4035 24.5574 11.617 24.9972C11.8325 25.4061 12.0074 25.811 12.1437 26.2118C12.2291 26.4892 12.286 26.779 12.3185 27.0811C12.3714 27.3976 12.3958 27.6936 12.3958 27.969H12.3999Z" fill="#D51480"/>
<path d="M26.8982 40H22.8923L19.7852 33.0268H17.8514V39.9795H14.177V29.3336H20.627C20.6392 29.3336 20.7186 29.3172 20.8609 29.2843C20.9199 29.2637 20.9748 29.2473 21.0276 29.235C21.0805 29.2226 21.1293 29.2062 21.174 29.1856C21.6295 28.9945 21.9427 28.7314 22.1115 28.3965C22.2802 28.0347 22.3656 27.7018 22.3656 27.3997C22.3656 27.0976 22.2802 26.7667 22.1115 26.3927C21.9223 26.0494 21.6092 25.7843 21.174 25.5932C21.1029 25.5665 20.9992 25.5336 20.8609 25.4945C20.7308 25.474 20.6514 25.4658 20.627 25.4658H14.177V21.7623H20.7247C20.7775 21.7623 20.8995 21.7747 21.0968 21.8014C21.2066 21.8137 21.3733 21.8466 21.595 21.9C21.7576 21.9391 21.9183 21.9822 22.0728 22.0274C22.1969 22.0603 22.3107 22.0973 22.4144 22.1364C22.7215 22.2741 23.0814 22.4631 23.4983 22.6995C23.8378 22.903 24.1896 23.1989 24.5536 23.5873C24.9318 24.0025 25.2368 24.4423 25.4727 24.9109C25.6944 25.3979 25.8448 25.8521 25.9221 26.2735C25.9994 26.6167 26.04 26.9948 26.04 27.41C26.04 28.232 25.8509 29.0623 25.4727 29.8988C25.0823 30.7537 24.4072 31.508 23.4495 32.1595L26.8982 40.0021V40Z" fill="#D51480"/>
<path d="M33.0574 39.9795H29.3728V21.787H33.0574V39.9795Z" fill="#D51480"/>
<path d="M50.3985 39.9795H46.7343L38.7896 28.3451V39.9795H35.0969V21.787H38.7612L46.7058 33.4111V21.787H50.3985V39.9795Z" fill="#D51480"/>
<path d="M68.0001 25.4801H62.156V39.9774H58.4816V25.4986H52.5989V21.7849H67.9981V25.4781L68.0001 25.4801Z" fill="#D51480"/>
</g>
<defs>
<clipPath id="clip0_101_37">
<rect width="68" height="40" fill="white"/>
</clipPath>
</defs>
</svg>
