<svg width="40" height="24" viewBox="0 0 40 24" fill="none" xmlns="http://www.w3.org/2000/svg">
<path d="M38.3335 13.5C39.1619 13.5 39.8335 12.8284 39.8335 12C39.8335 11.1716 39.1619 10.5 38.3335 10.5V13.5ZM0.606167 10.9393C0.0203819 11.5251 0.0203819 12.4749 0.606167 13.0607L10.1521 22.6066C10.7379 23.1924 11.6876 23.1924 12.2734 22.6066C12.8592 22.0208 12.8592 21.0711 12.2734 20.4853L3.78815 12L12.2734 3.51472C12.8592 2.92893 12.8592 1.97919 12.2734 1.3934C11.6876 0.807611 10.7379 0.807611 10.1521 1.3934L0.606167 10.9393ZM38.3335 10.5L1.66683 10.5V13.5L38.3335 13.5V10.5Z" fill="#D5127F"/>
</svg>
