<svg width="40" height="24" viewBox="0 0 40 24" fill="none" xmlns="http://www.w3.org/2000/svg">
<path d="M1.66626 10.5C0.837832 10.5 0.16626 11.1716 0.16626 12C0.16626 12.8284 0.837833 13.5 1.66626 13.5L1.66626 10.5ZM39.3936 13.0607C39.9794 12.4749 39.9794 11.5251 39.3936 10.9393L29.8477 1.3934C29.2619 0.807609 28.3121 0.807609 27.7263 1.3934C27.1405 1.97918 27.1405 2.92893 27.7263 3.51472L36.2116 12L27.7263 20.4853C27.1405 21.0711 27.1405 22.0208 27.7263 22.6066C28.3121 23.1924 29.2619 23.1924 29.8477 22.6066L39.3936 13.0607ZM1.66626 13.5L38.3329 13.5L38.3329 10.5L1.66626 10.5L1.66626 13.5Z" fill="#D5127F"/>
</svg>
