<svg width="57" height="57" viewBox="0 0 57 57" fill="none" xmlns="http://www.w3.org/2000/svg">
<rect x="1" y="1" width="55" height="55" rx="14" fill="#29B6F6"/>
<path d="M45.9271 14.6458L40.4642 42.5379C40.4642 42.5379 40.2294 43.8125 38.6485 43.8125C37.8085 43.8125 37.3754 43.4129 37.3754 43.4129L25.5425 33.594L19.7529 30.6758L12.3227 28.6998C12.3227 28.6998 11 28.3177 11 27.224C11 26.3125 12.3606 25.8779 12.3606 25.8779L43.4465 13.5288C43.4465 13.5288 44.3958 13.186 45.0885 13.1875C45.5144 13.1875 46 13.3698 46 13.9167C46 14.2813 45.9271 14.6458 45.9271 14.6458Z" fill="white"/>
<path d="M29.9579 37.2572L24.9616 42.1776C24.9616 42.1776 24.7443 42.3453 24.4541 42.3526C24.3535 42.3555 24.2456 42.3395 24.1348 42.2899L25.5406 33.5909L29.9579 37.2572Z" fill="#B0BEC5"/>
<path d="M40.0165 19.3067C39.77 18.9858 39.315 18.9275 38.9942 19.171L19.75 30.6875C19.75 30.6875 22.8213 39.28 23.2894 40.7675C23.759 42.2565 24.1352 42.2915 24.1352 42.2915L25.541 33.5925L39.8794 20.3275C40.2002 20.084 40.26 19.6275 40.0165 19.3067Z" fill="#CFD8DC"/>
<rect x="1" y="1" width="55" height="55" rx="14" stroke="black" stroke-width="2"/>
</svg>
